<svg width="36" height="36" viewBox="0 0 36 36" fill="none" xmlns="http://www.w3.org/2000/svg" xmlns:xlink="http://www.w3.org/1999/xlink">
<path d="M6.38,25.528L8.044,25.249L8.044,25.249L6.38,25.528ZM4.574,14.759L6.239,14.48L6.239,14.48L4.574,14.759ZM4.602,11.783L3.296,10.713L3.296,10.713L4.602,11.783ZM32.539,11.783L33.844,10.714L33.844,10.713L32.539,11.783ZM32.566,14.759L34.231,15.038L34.231,15.038L32.566,14.759ZM30.761,25.528L29.097,25.249L29.097,25.249L30.761,25.528ZM28.642,31.941L29.747,33.216L29.747,33.216L28.642,31.941ZM8.499,31.941L7.394,33.216L7.394,33.216L8.499,31.941ZM8.044,25.249L6.239,14.48L2.91,15.038L4.715,25.807L8.044,25.249ZM6.239,14.48C6.094,13.616 6.018,13.142 6.009,12.812C6,12.524 6.058,12.668 5.907,12.852L3.296,10.713C2.708,11.431 2.616,12.249 2.635,12.909C2.653,13.526 2.782,14.273 2.91,15.038L6.239,14.48ZM5.907,12.852C5.749,13.045 5.578,13.022 5.831,12.985C6.137,12.941 6.592,12.937 7.449,12.937L7.449,9.562C6.699,9.562 5.95,9.557 5.343,9.646C4.683,9.742 3.892,9.986 3.296,10.713L5.907,12.852ZM7.449,12.937L29.692,12.937L29.692,9.562L7.449,9.562L7.449,12.937ZM29.692,12.937C30.548,12.937 31.004,12.941 31.31,12.985C31.562,13.022 31.392,13.045 31.233,12.852L33.844,10.713C33.249,9.986 32.458,9.742 31.798,9.646C31.191,9.557 30.442,9.562 29.692,9.562L29.692,12.937ZM31.233,12.852C31.082,12.668 31.14,12.524 31.132,12.812C31.123,13.142 31.047,13.616 30.902,14.48L34.231,15.038C34.359,14.273 34.488,13.526 34.506,12.909C34.525,12.249 34.432,11.431 33.844,10.714L31.233,12.852ZM30.902,14.48L29.097,25.249L32.425,25.807L34.231,15.038L30.902,14.48ZM29.097,25.249C28.791,27.076 28.583,28.295 28.317,29.199C28.062,30.061 27.809,30.43 27.537,30.665L29.747,33.216C30.696,32.394 31.204,31.341 31.554,30.154C31.892,29.008 32.133,27.55 32.425,25.807L29.097,25.249ZM27.537,30.665C27.27,30.897 26.889,31.084 26.038,31.193C25.137,31.308 23.943,31.311 22.138,31.311L22.138,34.687C23.854,34.687 25.302,34.69 26.467,34.541C27.682,34.385 28.792,34.043 29.747,33.216L27.537,30.665ZM22.138,31.311L15.003,31.311L15.003,34.687L22.138,34.687L22.138,31.311ZM15.003,31.311C13.198,31.311 12.004,31.308 11.103,31.193C10.252,31.084 9.871,30.897 9.604,30.665L7.394,33.216C8.348,34.043 9.459,34.385 10.674,34.541C11.839,34.69 13.287,34.687 15.003,34.687L15.003,31.311ZM9.604,30.665C9.332,30.43 9.078,30.061 8.824,29.199C8.557,28.295 8.35,27.076 8.044,25.249L4.715,25.807C5.008,27.55 5.249,29.008 5.587,30.154C5.937,31.34 6.444,32.394 7.394,33.216L9.604,30.665Z" fill="#FFFFFF"/>
<path d="M28.5,11.252C28.5,5.764 24.051,1.314 18.563,1.314L18.563,4.689C22.187,4.689 25.125,7.628 25.125,11.252L28.5,11.252ZM18.563,1.314C13.074,1.314 8.625,5.764 8.625,11.252L12,11.252C12,7.628 14.938,4.689 18.563,4.689L18.563,1.314Z" fill="#FFFFFF"/>
</svg>
