<svg width="48" height="50" viewBox="0 0 48 50" fill="none" xmlns="http://www.w3.org/2000/svg" xmlns:xlink="http://www.w3.org/1999/xlink">
<path d="M43.611,20.725L42,20.725L42,20.642L24,20.642L24,28.642L35.303,28.642C33.654,33.299 29.223,36.642 24,36.642C17.373,36.642 12,31.269 12,24.642C12,18.015 17.373,12.642 24,12.642C27.059,12.642 29.842,13.796 31.961,15.681L37.618,10.024C34.046,6.695 29.268,4.642 24,4.642C12.955,4.642 4,13.597 4,24.642C4,35.687 12.955,44.642 24,44.642C35.045,44.642 44,35.687 44,24.642C44,23.301 43.862,21.992 43.611,20.725Z" fill="#FFC107"/>
<path d="M6.305,15.333L12.876,20.152C14.654,15.75 18.96,12.642 23.999,12.642C27.058,12.642 29.841,13.796 31.96,15.681L37.617,10.024C34.045,6.695 29.267,4.642 23.999,4.642C16.317,4.642 9.655,8.979 6.305,15.333Z" fill="#FF3D00"/>
<path d="M24,44.642C29.166,44.642 33.86,42.665 37.409,39.45L31.219,34.212C29.211,35.733 26.715,36.642 24,36.642C18.798,36.642 14.381,33.325 12.717,28.696L6.195,33.721C9.505,40.198 16.227,44.642 24,44.642Z" fill="#4CAF50"/>
<path d="M43.611,20.725L42,20.725L42,20.642L24,20.642L24,28.642L35.303,28.642C34.511,30.879 33.072,32.808 31.216,34.213L31.219,34.211L37.409,39.449C36.971,39.847 44,34.642 44,24.642C44,23.301 43.862,21.992 43.611,20.725Z" fill="#1976D2"/>
</svg>
