<svg width="32" height="32" viewBox="0 0 32 32" fill="none" xmlns="http://www.w3.org/2000/svg" xmlns:xlink="http://www.w3.org/1999/xlink">
<path d="M30.638,16.005C30.638,7.923 24.087,1.372 16.005,1.372L16.005,3.972C22.651,3.972 28.038,9.359 28.038,16.005L30.638,16.005ZM16.005,1.372C7.923,1.372 1.372,7.923 1.372,16.005L3.972,16.005C3.972,9.359 9.359,3.972 16.005,3.972L16.005,1.372ZM1.372,16.005C1.372,24.087 7.923,30.638 16.005,30.638L16.005,28.038C9.359,28.038 3.972,22.651 3.972,16.005L1.372,16.005ZM16.005,30.638C24.087,30.638 30.638,24.087 30.638,16.005L28.038,16.005C28.038,22.651 22.651,28.038 16.005,28.038L16.005,30.638Z" fill="#656565"/>
<path d="M15.018,22.672C15.018,23.39 15.6,23.972 16.318,23.972C17.036,23.972 17.618,23.39 17.618,22.672L15.018,22.672ZM14.984,13.372C14.266,13.372 13.684,13.954 13.684,14.672C13.684,15.39 14.266,15.972 14.984,15.972L14.984,13.372ZM17.618,22.672L17.618,16.005L15.018,16.005L15.018,22.672L17.618,22.672ZM17.618,16.005C17.618,15.728 17.62,15.389 17.582,15.1C17.538,14.775 17.421,14.327 17.042,13.948L15.203,15.786C15.121,15.704 15.066,15.613 15.033,15.534C15.005,15.465 15.002,15.425 15.005,15.447C15.008,15.47 15.013,15.521 15.015,15.622C15.018,15.724 15.018,15.843 15.018,16.005L17.618,16.005ZM17.042,13.948C16.662,13.568 16.215,13.452 15.889,13.408C15.601,13.369 15.262,13.372 14.984,13.372L14.984,15.972C15.146,15.972 15.266,15.972 15.367,15.975C15.469,15.977 15.52,15.982 15.543,15.985C15.565,15.988 15.525,15.985 15.456,15.956C15.377,15.924 15.285,15.868 15.203,15.786L17.042,13.948Z" fill="#656565"/>
<line x1="15.984" y1="9.372" x2="15.996" y2="9.372" stroke="#656565" stroke-width="1.3" stroke-miterlimit="3.999327" stroke-linecap="round" stroke-linejoin="round"/>
</svg>
