<svg width="42" height="40" viewBox="0 0 42 40" fill="none" xmlns="http://www.w3.org/2000/svg" xmlns:xlink="http://www.w3.org/1999/xlink">
<path d="M7.34,6.481L6.33,5.471L6.33,5.471L7.34,6.481ZM34.369,6.481L35.38,5.471L35.38,5.471L34.369,6.481ZM34.369,33.51L35.38,34.52L35.38,34.52L34.369,33.51ZM7.34,33.51L6.33,34.52L6.33,34.52L7.34,33.51ZM6.45,19.995C6.45,16.223 6.453,13.538 6.727,11.499C6.996,9.502 7.501,8.341 8.35,7.491L6.33,5.471C4.861,6.94 4.207,8.804 3.895,11.118C3.59,13.391 3.593,16.304 3.593,19.995L6.45,19.995ZM8.35,7.491C9.2,6.641 10.361,6.136 12.358,5.868C14.397,5.594 17.082,5.591 20.855,5.591L20.855,2.734C17.163,2.734 14.251,2.731 11.978,3.036C9.664,3.347 7.799,4.002 6.33,5.471L8.35,7.491ZM20.855,5.591C24.627,5.591 27.313,5.594 29.351,5.868C31.349,6.136 32.51,6.641 33.359,7.491L35.38,5.471C33.91,4.002 32.046,3.347 29.732,3.036C27.459,2.731 24.546,2.734 20.855,2.734L20.855,5.591ZM33.359,7.491C34.209,8.341 34.714,9.502 34.982,11.499C35.256,13.538 35.259,16.223 35.259,19.995L38.117,19.995C38.117,16.304 38.12,13.391 37.814,11.118C37.503,8.804 36.849,6.94 35.38,5.471L33.359,7.491ZM35.259,19.995C35.259,23.768 35.256,26.453 34.982,28.492C34.714,30.489 34.209,31.65 33.359,32.5L35.38,34.52C36.849,33.051 37.503,31.187 37.814,28.873C38.12,26.599 38.117,23.687 38.117,19.995L35.259,19.995ZM33.359,32.5C32.51,33.35 31.349,33.855 29.351,34.123C27.313,34.397 24.627,34.4 20.855,34.4L20.855,37.257C24.546,37.257 27.459,37.26 29.732,36.955C32.046,36.644 33.91,35.989 35.38,34.52L33.359,32.5ZM20.855,34.4C17.082,34.4 14.397,34.397 12.358,34.123C10.361,33.855 9.2,33.35 8.35,32.5L6.33,34.52C7.799,35.989 9.664,36.644 11.978,36.955C14.251,37.26 17.163,37.257 20.855,37.257L20.855,34.4ZM8.35,32.5C7.501,31.65 6.996,30.489 6.727,28.492C6.453,26.453 6.45,23.768 6.45,19.995L3.593,19.995C3.593,23.687 3.59,26.599 3.895,28.873C4.207,31.187 4.861,33.051 6.33,34.52L8.35,32.5Z" fill="#DFDFDF"/>
<path d="M26.929,20C26.929,23.353 24.211,26.071 20.857,26.071L20.857,28.929C25.789,28.929 29.786,24.931 29.786,20L26.929,20ZM20.857,26.071C17.504,26.071 14.786,23.353 14.786,20L11.929,20C11.929,24.931 15.926,28.929 20.857,28.929L20.857,26.071ZM14.786,20C14.786,16.647 17.504,13.929 20.857,13.929L20.857,11.071C15.926,11.071 11.929,15.069 11.929,20L14.786,20ZM20.857,13.929C24.211,13.929 26.929,16.647 26.929,20L29.786,20C29.786,15.069 25.789,11.071 20.857,11.071L20.857,13.929Z" fill="#DFDFDF"/>
<line x1="30.021" y1="9.402" x2="30.036" y2="9.402" stroke="#DFDFDF" stroke-width="1.429" stroke-miterlimit="3.999327" stroke-linecap="round" stroke-linejoin="round"/>
</svg>
