<svg width="42" height="40" viewBox="0 0 42 40" fill="none" xmlns="http://www.w3.org/2000/svg" xmlns:xlink="http://www.w3.org/1999/xlink">
<path d="M4.396,16.32L3.386,15.31L3.386,15.31L4.396,16.32ZM4.396,36.177L3.386,37.187L3.386,37.187L4.396,36.177ZM10.92,36.177L11.93,37.187L11.93,37.187L10.92,36.177ZM10.92,16.32L11.93,15.31L11.93,15.31L10.92,16.32ZM8.075,14.403L7.242,14.403L7.242,17.26L8.075,17.26L8.075,14.403ZM7.242,14.403C6.496,14.403 5.794,14.4 5.222,14.477C4.61,14.559 3.94,14.756 3.386,15.31L5.406,17.33C5.341,17.396 5.308,17.348 5.603,17.309C5.94,17.263 6.415,17.26 7.242,17.26L7.242,14.403ZM3.386,15.31C2.832,15.864 2.636,16.534 2.553,17.146C2.477,17.717 2.48,18.42 2.48,19.165L5.337,19.165C5.337,18.339 5.34,17.863 5.385,17.527C5.425,17.231 5.472,17.264 5.407,17.33L3.386,15.31ZM2.48,19.165L2.48,33.332L5.337,33.332L5.337,19.165L2.48,19.165ZM2.48,33.332C2.48,34.077 2.477,34.78 2.553,35.351C2.636,35.963 2.832,36.633 3.386,37.187L5.407,35.167C5.472,35.232 5.425,35.266 5.385,34.97C5.34,34.634 5.337,34.158 5.337,33.332L2.48,33.332ZM3.386,37.187C3.94,37.741 4.61,37.938 5.222,38.02C5.794,38.097 6.496,38.094 7.242,38.094L7.242,35.237C6.415,35.237 5.94,35.234 5.603,35.188C5.308,35.149 5.341,35.101 5.407,35.167L3.386,37.187ZM7.242,38.094L8.075,38.094L8.075,35.237L7.242,35.237L7.242,38.094ZM8.075,38.094C8.82,38.094 9.523,38.097 10.094,38.02C10.706,37.938 11.376,37.741 11.93,37.187L9.91,35.167C9.975,35.101 10.009,35.149 9.713,35.188C9.377,35.234 8.901,35.237 8.075,35.237L8.075,38.094ZM11.93,37.187C12.484,36.633 12.681,35.963 12.763,35.351C12.84,34.78 12.837,34.077 12.837,33.332L9.98,33.332C9.98,34.158 9.977,34.634 9.931,34.97C9.892,35.266 9.844,35.232 9.91,35.167L11.93,37.187ZM12.837,33.332L12.837,19.165L9.98,19.165L9.98,33.332L12.837,33.332ZM12.837,19.165C12.837,18.42 12.84,17.717 12.763,17.146C12.681,16.534 12.484,15.864 11.93,15.31L9.91,17.33C9.844,17.264 9.892,17.231 9.931,17.527C9.977,17.863 9.98,18.339 9.98,19.165L12.837,19.165ZM11.93,15.31C11.376,14.756 10.706,14.559 10.094,14.477C9.523,14.4 8.82,14.403 8.075,14.403L8.075,17.26C8.901,17.26 9.377,17.263 9.713,17.309C10.009,17.348 9.976,17.396 9.91,17.33L11.93,15.31Z" fill="#DFDFDF"/>
<path d="M9.98,7.082C9.98,8.364 8.94,9.403 7.658,9.403L7.658,12.26C10.518,12.26 12.837,9.942 12.837,7.082L9.98,7.082ZM7.658,9.403C6.376,9.403 5.337,8.364 5.337,7.082L2.48,7.082C2.48,9.942 4.798,12.26 7.658,12.26L7.658,9.403ZM5.337,7.082C5.337,5.8 6.376,4.76 7.658,4.76L7.658,1.903C4.798,1.903 2.48,4.222 2.48,7.082L5.337,7.082ZM7.658,4.76C8.94,4.76 9.98,5.8 9.98,7.082L12.837,7.082C12.837,4.222 10.518,1.903 7.658,1.903L7.658,4.76Z" fill="#DFDFDF"/>
<path d="M16.896,16.32L15.886,15.31L15.886,15.31L16.896,16.32ZM16.896,36.177L15.886,37.187L15.886,37.187L16.896,36.177ZM23.908,33.332L22.48,33.332L22.48,33.332L23.908,33.332ZM23.908,27.499L25.337,27.499L25.337,27.499L23.908,27.499ZM30.23,35.344L31.24,34.334L31.24,34.334L30.23,35.344ZM37.239,32.499L35.811,32.499L35.811,32.499L37.239,32.499ZM37.242,23.332L38.67,23.332L38.67,23.332L37.242,23.332ZM23.908,18.622L22.48,18.622C22.48,19.235 22.871,19.78 23.452,19.976C24.033,20.171 24.674,19.975 25.045,19.487L23.908,18.622ZM23.68,16.657L24.913,15.936L24.913,15.935L23.68,16.657ZM23.083,16.06L22.362,17.293L22.362,17.293L23.083,16.06ZM21.118,14.403L19.742,14.403L19.742,17.26L21.118,17.26L21.118,14.403ZM19.742,14.403C18.996,14.403 18.294,14.4 17.722,14.477C17.11,14.559 16.44,14.756 15.886,15.31L17.906,17.33C17.841,17.396 17.808,17.348 18.103,17.309C18.44,17.263 18.915,17.26 19.742,17.26L19.742,14.403ZM15.886,15.31C15.332,15.864 15.136,16.534 15.053,17.146C14.977,17.717 14.98,18.42 14.98,19.165L17.837,19.165C17.837,18.339 17.84,17.863 17.885,17.527C17.925,17.231 17.972,17.264 17.907,17.33L15.886,15.31ZM14.98,19.165L14.98,33.332L17.837,33.332L17.837,19.165L14.98,19.165ZM14.98,33.332C14.98,34.077 14.977,34.78 15.053,35.351C15.136,35.963 15.332,36.633 15.886,37.187L17.907,35.167C17.972,35.232 17.925,35.266 17.885,34.97C17.84,34.634 17.837,34.158 17.837,33.332L14.98,33.332ZM15.886,37.187C16.44,37.741 17.11,37.938 17.722,38.02C18.294,38.097 18.996,38.094 19.742,38.094L19.742,35.237C18.915,35.237 18.44,35.234 18.103,35.188C17.808,35.149 17.841,35.101 17.906,35.167L15.886,37.187ZM19.742,38.094L20.575,38.094L20.575,35.237L19.742,35.237L19.742,38.094ZM20.575,38.094C21.32,38.094 22.023,38.097 22.594,38.02C23.206,37.938 23.876,37.741 24.43,37.187L22.41,35.167C22.475,35.101 22.509,35.149 22.213,35.188C21.877,35.234 21.401,35.237 20.575,35.237L20.575,38.094ZM24.43,37.187C24.984,36.633 25.181,35.963 25.263,35.351C25.34,34.78 25.337,34.077 25.337,33.332L22.48,33.332C22.48,34.158 22.477,34.634 22.431,34.97C22.392,35.266 22.344,35.232 22.41,35.167L24.43,37.187ZM25.337,33.332L25.337,27.499L22.48,27.499L22.48,33.332L25.337,33.332ZM25.337,27.499C25.337,26.227 25.547,25.281 25.897,24.7C26.183,24.225 26.588,23.927 27.388,23.927L27.388,21.07C25.588,21.07 24.253,21.892 23.45,23.226C22.71,24.454 22.48,26.009 22.48,27.499L25.337,27.499ZM27.388,23.927C27.819,23.927 28.313,24.324 28.313,24.999L31.17,24.999C31.17,22.911 29.557,21.07 27.388,21.07L27.388,23.927ZM28.313,24.999L28.313,32.499L31.17,32.499L31.17,24.999L28.313,24.999ZM28.313,32.499C28.313,33.244 28.31,33.947 28.387,34.518C28.469,35.13 28.666,35.8 29.22,36.354L31.24,34.334C31.305,34.399 31.258,34.432 31.218,34.137C31.173,33.8 31.17,33.325 31.17,32.499L28.313,32.499ZM29.219,36.354C29.773,36.908 30.443,37.104 31.056,37.187C31.627,37.264 32.33,37.261 33.075,37.261L33.075,34.403C32.249,34.403 31.773,34.4 31.436,34.355C31.141,34.315 31.174,34.268 31.24,34.334L29.219,36.354ZM33.075,37.261L33.906,37.261L33.906,34.403L33.075,34.403L33.075,37.261ZM33.906,37.261C34.651,37.261 35.354,37.264 35.925,37.187C36.537,37.105 37.207,36.908 37.761,36.354L35.741,34.334C35.806,34.268 35.839,34.315 35.544,34.355C35.208,34.4 34.732,34.403 33.906,34.403L33.906,37.261ZM37.761,36.354C38.314,35.801 38.511,35.131 38.594,34.518C38.671,33.947 38.668,33.245 38.668,32.5L35.811,32.499C35.811,33.325 35.807,33.801 35.762,34.137C35.722,34.433 35.675,34.399 35.741,34.334L37.761,36.354ZM38.668,32.5L38.67,23.332L35.813,23.332L35.811,32.499L38.668,32.5ZM38.67,23.332C38.67,18.294 33.98,14.404 29.403,14.404L29.403,17.261C32.625,17.261 35.813,20.086 35.813,23.332L38.67,23.332ZM29.403,14.404C26.699,14.404 24.312,15.732 22.771,17.757L25.045,19.487C26.094,18.109 27.667,17.261 29.403,17.261L29.403,14.404ZM25.337,18.622C25.337,18.123 25.338,17.653 25.302,17.261C25.265,16.85 25.177,16.386 24.913,15.936L22.447,17.378C22.412,17.317 22.438,17.311 22.457,17.522C22.478,17.753 22.48,18.07 22.48,18.622L25.337,18.622ZM24.913,15.935C24.645,15.477 24.263,15.095 23.805,14.827L22.362,17.293C22.397,17.314 22.427,17.343 22.447,17.378L24.913,15.935ZM23.805,14.827C23.354,14.563 22.89,14.475 22.479,14.438C22.087,14.402 21.617,14.403 21.118,14.403L21.118,17.26C21.67,17.26 21.987,17.262 22.218,17.283C22.429,17.302 22.422,17.328 22.362,17.293L23.805,14.827Z" fill="#DFDFDF"/>
</svg>
