<svg width="42" height="40" viewBox="0 0 42 40" fill="none" xmlns="http://www.w3.org/2000/svg" xmlns:xlink="http://www.w3.org/1999/xlink">
<path d="M4.395,16.32L3.385,15.31L3.385,15.31L4.395,16.32ZM4.395,36.177L3.385,37.187L3.385,37.187L4.395,36.177ZM10.919,36.177L11.929,37.187L11.929,37.187L10.919,36.177ZM10.919,16.32L11.929,15.31L11.929,15.31L10.919,16.32ZM8.074,14.403L7.241,14.403L7.241,17.26L8.074,17.26L8.074,14.403ZM7.241,14.403C6.495,14.403 5.793,14.4 5.221,14.477C4.609,14.559 3.939,14.756 3.385,15.31L5.406,17.33C5.34,17.396 5.307,17.348 5.602,17.309C5.939,17.263 6.415,17.26 7.241,17.26L7.241,14.403ZM3.385,15.31C2.831,15.864 2.635,16.534 2.552,17.146C2.476,17.717 2.479,18.42 2.479,19.165L5.336,19.165C5.336,18.339 5.339,17.863 5.384,17.527C5.424,17.231 5.471,17.264 5.406,17.33L3.385,15.31ZM2.479,19.165L2.479,33.332L5.336,33.332L5.336,19.165L2.479,19.165ZM2.479,33.332C2.479,34.077 2.476,34.78 2.552,35.351C2.635,35.963 2.831,36.633 3.385,37.187L5.406,35.167C5.471,35.232 5.424,35.266 5.384,34.97C5.339,34.634 5.336,34.158 5.336,33.332L2.479,33.332ZM3.385,37.187C3.939,37.741 4.609,37.938 5.221,38.02C5.793,38.097 6.495,38.094 7.241,38.094L7.241,35.237C6.415,35.237 5.939,35.234 5.602,35.188C5.307,35.149 5.34,35.101 5.406,35.167L3.385,37.187ZM7.241,38.094L8.074,38.094L8.074,35.237L7.241,35.237L7.241,38.094ZM8.074,38.094C8.819,38.094 9.522,38.097 10.093,38.02C10.705,37.938 11.375,37.741 11.929,37.187L9.909,35.167C9.975,35.101 10.008,35.149 9.712,35.188C9.376,35.234 8.9,35.237 8.074,35.237L8.074,38.094ZM11.929,37.187C12.483,36.633 12.68,35.963 12.762,35.351C12.839,34.78 12.836,34.077 12.836,33.332L9.979,33.332C9.979,34.158 9.976,34.634 9.93,34.97C9.891,35.266 9.843,35.232 9.909,35.167L11.929,37.187ZM12.836,33.332L12.836,19.165L9.979,19.165L9.979,33.332L12.836,33.332ZM12.836,19.165C12.836,18.42 12.839,17.717 12.762,17.146C12.68,16.534 12.483,15.864 11.929,15.31L9.909,17.33C9.843,17.264 9.891,17.231 9.93,17.527C9.976,17.863 9.979,18.339 9.979,19.165L12.836,19.165ZM11.929,15.31C11.375,14.756 10.705,14.559 10.093,14.477C9.522,14.4 8.819,14.403 8.074,14.403L8.074,17.26C8.9,17.26 9.376,17.263 9.712,17.309C10.008,17.348 9.975,17.396 9.909,17.33L11.929,15.31Z" fill="#DFDFDF"/>
<path d="M9.979,7.082C9.979,8.364 8.939,9.403 7.657,9.403L7.657,12.26C10.517,12.26 12.836,9.942 12.836,7.082L9.979,7.082ZM7.657,9.403C6.375,9.403 5.336,8.364 5.336,7.082L2.479,7.082C2.479,9.942 4.797,12.26 7.657,12.26L7.657,9.403ZM5.336,7.082C5.336,5.8 6.375,4.76 7.657,4.76L7.657,1.903C4.797,1.903 2.479,4.222 2.479,7.082L5.336,7.082ZM7.657,4.76C8.939,4.76 9.979,5.8 9.979,7.082L12.836,7.082C12.836,4.222 10.517,1.903 7.657,1.903L7.657,4.76Z" fill="#DFDFDF"/>
<path d="M16.895,16.32L15.885,15.31L15.885,15.31L16.895,16.32ZM16.895,36.177L15.885,37.187L15.885,37.187L16.895,36.177ZM23.907,33.332L22.479,33.332L22.479,33.332L23.907,33.332ZM23.907,27.499L25.336,27.499L25.336,27.499L23.907,27.499ZM30.229,35.344L31.239,34.334L31.239,34.334L30.229,35.344ZM37.238,32.499L35.81,32.499L35.81,32.499L37.238,32.499ZM37.241,23.332L38.669,23.332L38.669,23.332L37.241,23.332ZM23.907,18.622L22.479,18.622C22.479,19.235 22.87,19.78 23.451,19.976C24.032,20.171 24.673,19.975 25.044,19.487L23.907,18.622ZM23.679,16.657L24.912,15.936L24.912,15.935L23.679,16.657ZM23.082,16.06L22.361,17.293L22.361,17.293L23.082,16.06ZM21.117,14.403L19.741,14.403L19.741,17.26L21.117,17.26L21.117,14.403ZM19.741,14.403C18.995,14.403 18.293,14.4 17.721,14.477C17.109,14.559 16.439,14.756 15.885,15.31L17.905,17.33C17.84,17.396 17.807,17.348 18.102,17.309C18.439,17.263 18.915,17.26 19.741,17.26L19.741,14.403ZM15.885,15.31C15.331,15.864 15.135,16.534 15.052,17.146C14.976,17.717 14.979,18.42 14.979,19.165L17.836,19.165C17.836,18.339 17.839,17.863 17.884,17.527C17.924,17.231 17.971,17.264 17.906,17.33L15.885,15.31ZM14.979,19.165L14.979,33.332L17.836,33.332L17.836,19.165L14.979,19.165ZM14.979,33.332C14.979,34.077 14.976,34.78 15.052,35.351C15.135,35.963 15.331,36.633 15.885,37.187L17.906,35.167C17.971,35.232 17.924,35.266 17.884,34.97C17.839,34.634 17.836,34.158 17.836,33.332L14.979,33.332ZM15.885,37.187C16.439,37.741 17.109,37.938 17.721,38.02C18.293,38.097 18.995,38.094 19.741,38.094L19.741,35.237C18.915,35.237 18.439,35.234 18.102,35.188C17.807,35.149 17.84,35.101 17.906,35.167L15.885,37.187ZM19.741,38.094L20.574,38.094L20.574,35.237L19.741,35.237L19.741,38.094ZM20.574,38.094C21.319,38.094 22.022,38.097 22.593,38.02C23.205,37.938 23.875,37.741 24.429,37.187L22.409,35.167C22.474,35.101 22.508,35.149 22.212,35.188C21.876,35.234 21.4,35.237 20.574,35.237L20.574,38.094ZM24.429,37.187C24.983,36.633 25.18,35.963 25.262,35.351C25.339,34.78 25.336,34.077 25.336,33.332L22.479,33.332C22.479,34.158 22.476,34.634 22.43,34.97C22.391,35.266 22.343,35.232 22.409,35.167L24.429,37.187ZM25.336,33.332L25.336,27.499L22.479,27.499L22.479,33.332L25.336,33.332ZM25.336,27.499C25.336,26.227 25.546,25.281 25.896,24.7C26.182,24.225 26.588,23.927 27.387,23.927L27.387,21.07C25.587,21.07 24.252,21.892 23.449,23.226C22.709,24.454 22.479,26.009 22.479,27.499L25.336,27.499ZM27.387,23.927C27.818,23.927 28.312,24.324 28.312,24.999L31.169,24.999C31.169,22.911 29.556,21.07 27.387,21.07L27.387,23.927ZM28.312,24.999L28.312,32.499L31.169,32.499L31.169,24.999L28.312,24.999ZM28.312,32.499C28.312,33.244 28.309,33.947 28.386,34.518C28.468,35.13 28.665,35.8 29.219,36.354L31.239,34.334C31.304,34.399 31.257,34.432 31.217,34.137C31.172,33.8 31.169,33.325 31.169,32.499L28.312,32.499ZM29.218,36.354C29.772,36.908 30.442,37.104 31.055,37.187C31.626,37.264 32.329,37.261 33.074,37.261L33.074,34.403C32.248,34.403 31.772,34.4 31.435,34.355C31.14,34.315 31.173,34.268 31.239,34.334L29.218,36.354ZM33.074,37.261L33.905,37.261L33.905,34.403L33.074,34.403L33.074,37.261ZM33.905,37.261C34.65,37.261 35.353,37.264 35.924,37.187C36.536,37.105 37.206,36.908 37.76,36.354L35.74,34.334C35.805,34.268 35.839,34.315 35.543,34.355C35.207,34.4 34.731,34.403 33.905,34.403L33.905,37.261ZM37.76,36.354C38.313,35.801 38.51,35.131 38.593,34.518C38.67,33.947 38.667,33.245 38.667,32.5L35.81,32.499C35.81,33.325 35.807,33.801 35.761,34.137C35.721,34.433 35.674,34.399 35.74,34.334L37.76,36.354ZM38.667,32.5L38.669,23.332L35.812,23.332L35.81,32.499L38.667,32.5ZM38.669,23.332C38.669,18.294 33.979,14.404 29.402,14.404L29.402,17.261C32.624,17.261 35.812,20.086 35.812,23.332L38.669,23.332ZM29.402,14.404C26.698,14.404 24.311,15.732 22.77,17.757L25.044,19.487C26.093,18.109 27.666,17.261 29.402,17.261L29.402,14.404ZM25.336,18.622C25.336,18.123 25.337,17.653 25.301,17.261C25.264,16.85 25.176,16.386 24.912,15.936L22.446,17.378C22.411,17.317 22.437,17.311 22.456,17.522C22.477,17.753 22.479,18.07 22.479,18.622L25.336,18.622ZM24.912,15.935C24.644,15.477 24.262,15.095 23.804,14.827L22.361,17.293C22.396,17.314 22.426,17.343 22.446,17.378L24.912,15.935ZM23.804,14.827C23.353,14.563 22.889,14.475 22.478,14.438C22.086,14.402 21.616,14.403 21.117,14.403L21.117,17.26C21.669,17.26 21.986,17.262 22.217,17.283C22.428,17.302 22.421,17.328 22.361,17.293L23.804,14.827Z" fill="#DFDFDF"/>
</svg>
