<svg width="28" height="28" viewBox="0 0 28 28" fill="none" xmlns="http://www.w3.org/2000/svg" xmlns:xlink="http://www.w3.org/1999/xlink">
<path d="M26.707,2.707C27.098,2.317 27.098,1.683 26.707,1.293C26.317,0.902 25.683,0.902 25.293,1.293L26.707,2.707ZM1.293,25.293C0.902,25.683 0.902,26.317 1.293,26.707C1.683,27.098 2.317,27.098 2.707,26.707L1.293,25.293ZM25.293,26.707C25.683,27.098 26.317,27.098 26.707,26.707C27.098,26.317 27.098,25.683 26.707,25.293L25.293,26.707ZM2.707,1.293C2.317,0.902 1.683,0.902 1.293,1.293C0.902,1.683 0.902,2.317 1.293,2.707L2.707,1.293ZM25.293,1.293L13.293,13.293L14.707,14.707L26.707,2.707L25.293,1.293ZM13.293,13.293L1.293,25.293L2.707,26.707L14.707,14.707L13.293,13.293ZM13.293,14.707L25.293,26.707L26.707,25.293L14.707,13.293L13.293,14.707ZM14.707,13.293L2.707,1.293L1.293,2.707L13.293,14.707L14.707,13.293Z" fill="#939393"/>
</svg>
