<svg width="28" height="38" viewBox="0 0 28 38" fill="none" xmlns="http://www.w3.org/2000/svg" xmlns:xlink="http://www.w3.org/1999/xlink">
<path d="M8.245,21.702L9.674,21.702C9.674,20.913 9.034,20.274 8.245,20.274L8.245,21.702ZM16.124,21.702L16.124,20.274C15.335,20.274 14.695,20.913 14.695,21.702L16.124,21.702ZM22.441,20.359L23.808,20.775L23.808,20.775L22.441,20.359ZM23.285,17.582L24.652,17.997L24.652,17.997L23.285,17.582ZM16.124,15.221L14.695,15.221C14.695,16.01 15.335,16.649 16.124,16.649L16.124,15.221ZM8.245,15.221L8.245,16.649C9.034,16.649 9.674,16.01 9.674,15.221L8.245,15.221ZM4.306,13.792C3.869,13.792 3.427,13.812 3.021,13.896C2.605,13.982 2.132,14.154 1.731,14.531C0.942,15.273 0.907,16.357 0.907,17.073L3.765,17.073C3.765,16.723 3.786,16.546 3.806,16.462C3.82,16.399 3.808,16.501 3.688,16.613C3.576,16.719 3.494,16.716 3.599,16.694C3.716,16.67 3.927,16.649 4.306,16.649L4.306,13.792ZM0.907,17.073L0.907,19.851L3.765,19.851L3.765,17.073L0.907,17.073ZM0.907,19.851C0.907,20.566 0.942,21.65 1.731,22.392C2.132,22.769 2.605,22.941 3.021,23.027C3.427,23.111 3.869,23.131 4.306,23.131L4.306,20.274C3.927,20.274 3.716,20.254 3.599,20.229C3.494,20.208 3.576,20.205 3.688,20.31C3.808,20.423 3.82,20.524 3.806,20.461C3.786,20.377 3.765,20.2 3.765,19.851L0.907,19.851ZM4.306,23.131L8.245,23.131L8.245,20.274L4.306,20.274L4.306,23.131ZM6.816,21.702L6.816,32.814L9.674,32.814L9.674,21.702L6.816,21.702ZM6.816,32.814C6.816,33.529 6.851,34.613 7.64,35.355C8.041,35.732 8.514,35.904 8.93,35.99C9.336,36.074 9.778,36.094 10.215,36.094L10.215,33.237C9.836,33.237 9.625,33.217 9.508,33.192C9.403,33.171 9.485,33.168 9.597,33.273C9.717,33.386 9.729,33.487 9.715,33.424C9.695,33.34 9.674,33.163 9.674,32.814L6.816,32.814ZM10.215,36.094L14.154,36.094L14.154,33.237L10.215,33.237L10.215,36.094ZM14.154,36.094C14.59,36.094 15.033,36.074 15.438,35.99C15.855,35.904 16.328,35.732 16.729,35.355C17.517,34.613 17.552,33.529 17.552,32.814L14.695,32.814C14.695,33.163 14.674,33.34 14.654,33.424C14.639,33.487 14.652,33.386 14.771,33.273C14.884,33.168 14.966,33.171 14.86,33.192C14.744,33.217 14.533,33.237 14.154,33.237L14.154,36.094ZM17.552,32.814L17.552,21.702L14.695,21.702L14.695,32.814L17.552,32.814ZM16.124,23.131L20.547,23.131L20.547,20.274L16.124,20.274L16.124,23.131ZM20.547,23.131C21.161,23.131 21.975,23.099 22.657,22.615C23.36,22.116 23.634,21.348 23.808,20.775L21.074,19.944C20.999,20.19 20.949,20.306 20.921,20.358C20.901,20.394 20.924,20.341 21.004,20.284C21.08,20.23 21.125,20.232 21.057,20.245C20.976,20.26 20.826,20.274 20.547,20.274L20.547,23.131ZM23.808,20.775L24.652,17.997L21.918,17.166L21.074,19.944L23.808,20.775ZM24.652,17.997C24.807,17.488 24.936,16.965 24.959,16.475C24.984,15.969 24.904,15.337 24.465,14.79C24.037,14.256 23.451,14.033 22.973,13.926C22.495,13.82 21.949,13.792 21.391,13.792L21.391,16.649C21.892,16.649 22.185,16.678 22.352,16.715C22.518,16.752 22.382,16.76 22.236,16.577C22.078,16.381 22.111,16.219 22.105,16.336C22.099,16.467 22.055,16.718 21.918,17.166L24.652,17.997ZM21.391,13.792L16.124,13.792L16.124,16.649L21.391,16.649L21.391,13.792ZM17.552,15.221L17.552,10.591L14.695,10.591L14.695,15.221L17.552,15.221ZM17.552,10.591C17.552,10.439 17.71,10.168 18.093,10.168L18.093,7.311C16.301,7.311 14.695,8.698 14.695,10.591L17.552,10.591ZM18.093,10.168L23.7,10.168L23.7,7.311L18.093,7.311L18.093,10.168ZM23.7,10.168C24.136,10.168 24.579,10.148 24.984,10.065C25.401,9.978 25.873,9.806 26.274,9.429C27.063,8.687 27.098,7.603 27.098,6.888L24.241,6.888C24.241,7.237 24.219,7.414 24.2,7.498C24.185,7.561 24.197,7.46 24.317,7.347C24.429,7.242 24.511,7.245 24.406,7.266C24.289,7.291 24.078,7.311 23.7,7.311L23.7,10.168ZM27.098,6.888L27.098,3.184L24.241,3.184L24.241,6.888L27.098,6.888ZM27.098,3.184C27.098,2.469 27.063,1.384 26.274,0.643C25.873,0.266 25.401,0.093 24.984,0.007C24.579,-0.077 24.136,-0.097 23.7,-0.097L23.7,2.761C24.078,2.761 24.289,2.781 24.406,2.805C24.511,2.827 24.429,2.83 24.317,2.724C24.197,2.612 24.185,2.51 24.2,2.573C24.219,2.657 24.241,2.834 24.241,3.184L27.098,3.184ZM23.7,-0.097L18.093,-0.097L18.093,2.761L23.7,2.761L23.7,-0.097ZM18.093,-0.097C11.95,-0.097 6.816,4.607 6.816,10.591L9.674,10.591C9.674,6.348 13.359,2.761 18.093,2.761L18.093,-0.097ZM6.816,10.591L6.816,15.221L9.674,15.221L9.674,10.591L6.816,10.591ZM8.245,13.792L4.306,13.792L4.306,16.649L8.245,16.649L8.245,13.792Z" fill="#DFDFDF"/>
</svg>
