<svg width="42" height="48" viewBox="0 0 42 48" fill="none" xmlns="http://www.w3.org/2000/svg" xmlns:xlink="http://www.w3.org/1999/xlink">
<path d="M28.973,0.642C26.25,0.826 23.336,2.446 21.533,4.632C19.954,6.556 18.63,9.38 19.133,12.312C18.683,12.174 18.274,12.159 17.783,11.982C16.444,11.506 14.914,10.992 13.013,10.992C9.237,10.992 5.37,13.239 2.933,16.992C-0.615,22.445 0.098,32.041 5.483,40.242C6.432,41.682 7.538,43.254 8.903,44.502C10.268,45.751 11.918,46.704 13.853,46.722C15.507,46.741 16.658,46.19 17.693,45.732C18.728,45.275 19.692,44.87 21.503,44.862C21.514,44.862 21.521,44.862 21.533,44.862C23.336,44.847 24.27,45.245 25.283,45.702C26.295,46.16 27.435,46.737 29.093,46.722C31.065,46.707 32.741,45.627 34.133,44.292C35.524,42.957 36.668,41.319 37.613,39.882C38.966,37.82 39.51,36.695 40.553,34.392C40.661,34.152 40.665,33.875 40.56,33.631C40.459,33.387 40.26,33.196 40.013,33.102C36.6,31.812 34.654,28.794 34.373,25.602C34.091,22.411 35.441,19.126 38.843,17.262C39.094,17.127 39.27,16.891 39.33,16.614C39.386,16.336 39.319,16.044 39.143,15.822C36.701,12.789 33.266,10.992 29.903,10.992C27.758,10.992 26.183,11.499 24.893,11.982C24.679,12.065 24.521,12.057 24.323,12.132C25.631,11.442 26.786,10.486 27.653,9.372C29.228,7.351 30.443,4.475 29.993,1.452C29.918,0.957 29.471,0.605 28.973,0.642ZM27.953,2.922C27.889,4.861 27.225,6.759 26.123,8.172C24.968,9.657 23.025,10.685 21.143,10.992C21.176,9.129 21.911,7.197 23.033,5.832C24.21,4.407 26.16,3.38 27.953,2.922ZM13.013,12.912C13.853,12.912 15.803,13.314 17.123,13.782C18.443,14.251 19.834,14.802 21.473,14.802C23.074,14.802 24.341,14.247 25.583,13.782C26.824,13.317 28.061,12.912 29.903,12.912C32.306,12.912 34.905,14.161 36.953,16.332C33.675,18.646 32.141,22.254 32.453,25.752C32.764,29.289 34.894,32.645 38.393,34.392C38.388,34.403 38.383,34.414 38.378,34.425C37.629,36.057 37.129,37.145 36.023,38.832C35.104,40.231 34.013,41.761 32.813,42.912C31.613,44.064 30.341,44.791 29.063,44.802C27.829,44.814 27.128,44.446 26.063,43.962C24.998,43.479 23.621,42.924 21.503,42.942C19.388,42.954 17.993,43.486 16.913,43.962C15.833,44.439 15.124,44.814 13.883,44.802C12.57,44.791 11.352,44.154 10.193,43.092C9.034,42.031 7.988,40.584 7.073,39.192C2.033,31.512 1.628,22.49 4.523,18.042C6.645,14.776 12.173,12.912 13.013,12.912Z" fill="#000000"/>
<path d="M13.013,12.912C13.853,12.912 15.803,13.314 17.123,13.782C18.443,14.251 19.834,14.802 21.473,14.802C23.074,14.802 24.341,14.247 25.583,13.782C26.824,13.317 28.061,12.912 29.903,12.912C32.306,12.912 34.905,14.161 36.953,16.332C33.675,18.646 32.141,22.254 32.453,25.752C32.764,29.289 34.894,32.645 38.393,34.392L38.378,34.425C37.629,36.057 37.129,37.145 36.023,38.832C35.104,40.231 34.013,41.761 32.813,42.912C31.613,44.064 30.341,44.791 29.063,44.802C27.829,44.814 27.128,44.446 26.063,43.962C24.998,43.479 23.621,42.924 21.503,42.942C19.388,42.954 17.993,43.486 16.913,43.962C15.833,44.439 15.124,44.814 13.883,44.802C12.57,44.791 11.352,44.154 10.193,43.092C9.034,42.031 7.988,40.584 7.073,39.192C2.033,31.512 1.628,22.49 4.523,18.042C6.645,14.776 12.173,12.912 13.013,12.912Z" fill="#000000"/>
<path d="M27.953,2.922C27.889,4.861 27.225,6.759 26.123,8.172C24.968,9.657 23.025,10.685 21.143,10.992C21.176,9.129 21.911,7.197 23.033,5.832C24.21,4.407 26.16,3.38 27.953,2.922Z" fill="#000000"/>
</svg>
