<svg width="34" height="34" viewBox="0 0 34 34" fill="none" xmlns="http://www.w3.org/2000/svg" xmlns:xlink="http://www.w3.org/1999/xlink">
<path d="M-0.296,29.99C-0.854,30.548 -0.854,31.452 -0.296,32.01C0.262,32.568 1.166,32.568 1.724,32.01L-0.296,29.99ZM13.295,18.419L14.453,17.583L14.453,17.583L13.295,18.419ZM31.724,2.01C32.282,1.452 32.282,0.548 31.724,-0.01C31.166,-0.568 30.262,-0.568 29.704,-0.01L31.724,2.01ZM18.133,13.581L16.975,14.417L16.975,14.417L18.133,13.581ZM9.047,1L10.205,0.164C9.937,-0.208 9.506,-0.429 9.047,-0.429L9.047,1ZM0.714,1L0.714,-0.429C0.177,-0.429 -0.314,-0.128 -0.558,0.35C-0.802,0.827 -0.758,1.402 -0.444,1.836L0.714,1ZM30.714,31L30.714,32.429C31.25,32.429 31.742,32.128 31.986,31.65C32.23,31.173 32.186,30.598 31.872,30.164L30.714,31ZM22.38,31L21.222,31.836C21.491,32.208 21.922,32.429 22.38,32.429L22.38,31ZM1.724,32.01L14.305,19.429L12.284,17.409L-0.296,29.99L1.724,32.01ZM29.704,-0.01L17.123,12.571L19.143,14.591L31.724,2.01L29.704,-0.01ZM19.291,12.744L10.205,0.164L7.889,1.836L16.975,14.417L19.291,12.744ZM9.047,-0.429L0.714,-0.429L0.714,2.429L9.047,2.429L9.047,-0.429ZM-0.444,1.836L12.136,19.256L14.453,17.583L1.872,0.164L-0.444,1.836ZM16.975,14.417L29.556,31.836L31.872,30.164L19.291,12.744L16.975,14.417ZM30.714,29.571L22.38,29.571L22.38,32.429L30.714,32.429L30.714,29.571ZM23.539,30.164L14.453,17.583L12.136,19.256L21.222,31.836L23.539,30.164Z" fill="#DFDFDF"/>
</svg>
