<svg width="24" height="24" viewBox="0 0 24 24" fill="none" xmlns="http://www.w3.org/2000/svg" xmlns:xlink="http://www.w3.org/1999/xlink">
<path d="M13.01,1.32C13.01,0.768 12.563,0.32 12.01,0.32C11.458,0.32 11.01,0.768 11.01,1.32L13.01,1.32ZM11.01,22.654C11.01,23.206 11.458,23.654 12.01,23.654C12.563,23.654 13.01,23.206 13.01,22.654L11.01,22.654ZM22.677,12.987C23.229,12.987 23.677,12.539 23.677,11.987C23.677,11.435 23.229,10.987 22.677,10.987L22.677,12.987ZM1.344,10.987C0.791,10.987 0.344,11.435 0.344,11.987C0.344,12.539 0.791,12.987 1.344,12.987L1.344,10.987ZM11.01,1.32L11.01,22.654L13.01,22.654L13.01,1.32L11.01,1.32ZM22.677,10.987L1.344,10.987L1.344,12.987L22.677,12.987L22.677,10.987Z" fill="#5C5C5C"/>
</svg>
