<svg width="58" height="46" viewBox="0 0 58 46" fill="none" xmlns="http://www.w3.org/2000/svg" xmlns:xlink="http://www.w3.org/1999/xlink">
<path d="M6.317,29.385L9.276,28.889L9.276,28.889L6.317,29.385ZM3.108,10.239L6.067,9.743L6.067,9.743L3.108,10.239ZM3.157,4.949L0.836,3.048L0.836,3.048L3.157,4.949ZM52.822,4.949L55.143,3.048L55.143,3.048L52.822,4.949ZM52.871,10.239L55.83,10.735L55.83,10.735L52.871,10.239ZM49.662,29.385L46.703,28.889L46.703,28.889L49.662,29.385ZM45.894,40.785L47.859,43.053L47.859,43.053L45.894,40.785ZM10.085,40.785L8.12,43.053L8.12,43.053L10.085,40.785ZM9.276,28.889L6.067,9.743L0.149,10.735L3.359,29.881L9.276,28.889ZM6.067,9.743C5.809,8.208 5.675,7.365 5.658,6.778C5.643,6.267 5.746,6.522 5.478,6.85L0.836,3.048C-0.209,4.324 -0.373,5.778 -0.34,6.95C-0.308,8.049 -0.079,9.376 0.149,10.735L6.067,9.743ZM5.478,6.85C5.196,7.194 4.893,7.153 5.342,7.087C5.885,7.008 6.695,7 8.218,7L8.218,1C6.884,1 5.553,0.992 4.474,1.15C3.301,1.322 1.895,1.755 0.836,3.048L5.478,6.85ZM8.218,7L47.761,7L47.761,1L8.218,1L8.218,7ZM47.761,7C49.284,7 50.094,7.008 50.637,7.087C51.087,7.153 50.783,7.194 50.501,6.85L55.143,3.048C54.084,1.755 52.678,1.322 51.505,1.15C50.426,0.992 49.095,1 47.761,1L47.761,7ZM50.501,6.849C50.233,6.522 50.336,6.266 50.321,6.778C50.304,7.365 50.17,8.208 49.913,9.744L55.83,10.735C56.058,9.376 56.287,8.049 56.319,6.95C56.353,5.778 56.188,4.324 55.143,3.048L50.501,6.849ZM49.913,9.743L46.703,28.889L52.621,29.881L55.83,10.735L49.913,9.743ZM46.703,28.889C46.159,32.136 45.79,34.304 45.316,35.91C44.864,37.444 44.414,38.099 43.93,38.518L47.859,43.053C49.547,41.59 50.448,39.718 51.071,37.608C51.672,35.571 52.101,32.98 52.621,29.881L46.703,28.889ZM43.93,38.518C43.455,38.929 42.778,39.262 41.265,39.456C39.663,39.661 37.541,39.667 34.331,39.667L34.331,45.667C37.383,45.667 39.956,45.672 42.027,45.407C44.188,45.131 46.162,44.523 47.859,43.053L43.93,38.518ZM34.331,39.667L21.648,39.667L21.648,45.667L34.331,45.667L34.331,39.667ZM21.648,39.667C18.438,39.667 16.316,39.661 14.714,39.456C13.201,39.262 12.524,38.929 12.049,38.518L8.12,43.053C9.817,44.523 11.791,45.131 13.952,45.407C16.023,45.672 18.596,45.667 21.648,45.667L21.648,39.667ZM12.049,38.518C11.565,38.099 11.115,37.444 10.663,35.91C10.189,34.304 9.82,32.136 9.276,28.889L3.359,29.881C3.878,32.98 4.307,35.571 4.908,37.608C5.531,39.718 6.432,41.59 8.12,43.053L12.049,38.518Z" fill="#323232"/>
</svg>
