<svg width="34" height="34" viewBox="0 0 34 34" fill="none" xmlns="http://www.w3.org/2000/svg" xmlns:xlink="http://www.w3.org/1999/xlink">
<path d="M-0.295,29.99C-0.853,30.548 -0.853,31.452 -0.295,32.01C0.263,32.568 1.167,32.568 1.725,32.01L-0.295,29.99ZM13.296,18.419L14.454,17.583L14.454,17.583L13.296,18.419ZM31.725,2.01C32.283,1.452 32.283,0.548 31.725,-0.01C31.167,-0.568 30.263,-0.568 29.705,-0.01L31.725,2.01ZM18.134,13.581L16.976,14.417L16.976,14.417L18.134,13.581ZM9.048,1L10.206,0.164C9.938,-0.208 9.507,-0.429 9.048,-0.429L9.048,1ZM0.715,1L0.715,-0.429C0.178,-0.429 -0.313,-0.128 -0.557,0.35C-0.801,0.827 -0.757,1.402 -0.443,1.836L0.715,1ZM30.715,31L30.715,32.429C31.251,32.429 31.743,32.128 31.987,31.65C32.231,31.173 32.187,30.598 31.873,30.164L30.715,31ZM22.381,31L21.223,31.836C21.492,32.208 21.923,32.429 22.381,32.429L22.381,31ZM1.725,32.01L14.306,19.429L12.285,17.409L-0.295,29.99L1.725,32.01ZM29.705,-0.01L17.124,12.571L19.144,14.591L31.725,2.01L29.705,-0.01ZM19.292,12.744L10.206,0.164L7.89,1.836L16.976,14.417L19.292,12.744ZM9.048,-0.429L0.715,-0.429L0.715,2.429L9.048,2.429L9.048,-0.429ZM-0.443,1.836L12.137,19.256L14.454,17.583L1.873,0.164L-0.443,1.836ZM16.976,14.417L29.557,31.836L31.873,30.164L19.292,12.744L16.976,14.417ZM30.715,29.571L22.381,29.571L22.381,32.429L30.715,32.429L30.715,29.571ZM23.54,30.164L14.454,17.583L12.137,19.256L21.223,31.836L23.54,30.164Z" fill="#DFDFDF"/>
</svg>
