<svg width="48" height="48" viewBox="0 0 48 48" fill="none" xmlns="http://www.w3.org/2000/svg" xmlns:xlink="http://www.w3.org/1999/xlink">
<mask id="mask_0_1_8266" style="mask-type:alpha" maskUnits="userSpaceOnUse" x="0" y="0" width="24" height="24">
<rect  x="0" y="0" width="48" height="48" fill="#D9D9D9"/>
</mask>
<g mask="url(#mask_0_1_8266)">
<path d="M38.2,43.8L31.2,36.9C30.033,37.267 28.85,37.542 27.65,37.725C26.45,37.909 25.233,38 24,38C19.533,38 15.45,36.8 11.75,34.4C8.05,32 5.15,28.834 3.05,24.9C2.883,24.6 2.758,24.292 2.675,23.975C2.591,23.659 2.55,23.334 2.55,23C2.55,22.667 2.591,22.342 2.675,22.025C2.758,21.709 2.883,21.4 3.05,21.1C3.783,19.8 4.566,18.534 5.4,17.3C6.233,16.067 7.2,14.967 8.3,14L4.15,9.8C3.783,9.434 3.6,8.975 3.6,8.425C3.6,7.875 3.8,7.4 4.2,7C4.566,6.634 5.033,6.45 5.6,6.45C6.166,6.45 6.633,6.634 7,7L41,41C41.366,41.367 41.558,41.825 41.575,42.375C41.591,42.925 41.4,43.4 41,43.8C40.633,44.167 40.166,44.35 39.6,44.35C39.033,44.35 38.566,44.167 38.2,43.8ZM24,32C24.366,32 24.716,31.984 25.05,31.95C25.383,31.917 25.716,31.85 26.05,31.75L15.25,20.95C15.15,21.284 15.083,21.617 15.05,21.95C15.016,22.284 15,22.634 15,23C15,25.5 15.875,27.625 17.625,29.375C19.375,31.125 21.5,32 24,32ZM24,8C28.466,8 32.558,9.209 36.275,11.625C39.991,14.042 42.9,17.217 45,21.15C45.166,21.417 45.291,21.709 45.375,22.025C45.458,22.342 45.5,22.667 45.5,23C45.5,23.334 45.466,23.659 45.4,23.975C45.333,24.292 45.216,24.584 45.05,24.85C44.416,26.084 43.708,27.25 42.925,28.35C42.141,29.45 41.266,30.484 40.3,31.45C39.833,31.917 39.283,32.134 38.65,32.1C38.016,32.067 37.466,31.817 37,31.35L33,27.35C32.766,27.117 32.616,26.842 32.55,26.525C32.483,26.209 32.5,25.884 32.6,25.55C32.733,25.117 32.833,24.7 32.9,24.3C32.966,23.9 33,23.467 33,23C33,20.5 32.125,18.375 30.375,16.625C28.625,14.875 26.5,14 24,14C23.533,14 23.1,14.034 22.7,14.1C22.3,14.167 21.883,14.267 21.45,14.4C21.116,14.5 20.783,14.517 20.45,14.45C20.116,14.384 19.833,14.234 19.6,14L17.95,12.35C17.316,11.717 17.108,10.984 17.325,10.15C17.541,9.317 18.066,8.784 18.9,8.55C19.733,8.384 20.575,8.25 21.425,8.15C22.275,8.05 23.133,8 24,8ZM27.95,19.3C28.316,19.734 28.625,20.209 28.875,20.725C29.125,21.242 29.283,21.784 29.35,22.35C29.383,22.617 29.283,22.8 29.05,22.9C28.816,23 28.6,22.95 28.4,22.75L24.3,18.65C24.1,18.45 24.058,18.234 24.175,18C24.291,17.767 24.483,17.65 24.75,17.65C25.383,17.717 25.966,17.892 26.5,18.175C27.033,18.459 27.516,18.834 27.95,19.3Z" fill="#707070"/>
</g>
</svg>
